<?xml version="1.0" encoding="utf-8"?>
<!-- Generator: Adobe Illustrator 24.2.1, SVG Export Plug-In . SVG Version: 6.00 Build 0)  -->
<svg version="1.1" id="Layer_1" xmlns="http://www.w3.org/2000/svg" xmlns:xlink="http://www.w3.org/1999/xlink" x="0px" y="0px"
	 viewBox="0 0 32 32" style="enable-background:new 0 0 32 32;" xml:space="preserve">
<style type="text/css">
	.st0{fill:#DFDFDF;}
	.st1{fill:#616262;}
	.st2{fill:#41B554;}
</style>
<g id="Layer_2_1_">
	<g id="Layer_1-2">
		<path class="st0" d="M25.3,5.3h-5.6c-0.8-2.1-3-3.1-5.1-2.4c-1.1,0.4-2,1.3-2.4,2.4H6.7C5.2,5.3,4,6.5,4,8v18.7
			c0,1.5,1.2,2.7,2.7,2.7h18.7c1.5,0,2.7-1.2,2.7-2.7V8C28,6.5,26.8,5.3,25.3,5.3z M16,5.3c0.7,0,1.3,0.6,1.3,1.3S16.7,8,16,8
			s-1.3-0.6-1.3-1.3l0,0C14.7,5.9,15.3,5.3,16,5.3z"/>
		<path class="st1" d="M19.5,16.2H8.8c-0.5-0.1-0.9,0.3-0.9,0.7c-0.1,0.5,0.3,0.9,0.7,0.9c0.1,0,0.1,0,0.2,0h10.7
			c0.5-0.1,0.8-0.5,0.7-0.9C20.2,16.5,19.9,16.2,19.5,16.2z M19.5,12.9H8.8c-0.5-0.1-0.9,0.3-0.9,0.7c-0.1,0.5,0.3,0.9,0.7,0.9
			c0.1,0,0.1,0,0.2,0h10.7c0.5-0.1,0.8-0.5,0.7-0.9C20.2,13.2,19.9,12.9,19.5,12.9z M8.8,21.1h4.9c0.5,0.1,0.9-0.3,0.9-0.7
			c0.1-0.5-0.3-0.9-0.7-0.9c-0.1,0-0.1,0-0.2,0H8.8c-0.5-0.1-0.9,0.3-0.9,0.7c-0.1,0.5,0.3,0.9,0.7,0.9C8.7,21.1,8.7,21.1,8.8,21.1z
			"/>
		<path class="st2" d="M24.9,18.6L24.9,18.6c0.4,0.4,0.4,0.9,0.1,1.2c0,0,0,0,0,0l-4.6,4.6c-0.3,0.3-0.8,0.3-1.2,0c0,0,0,0,0,0
			l-2.5-2.5c-0.3-0.3-0.3-0.8,0-1.2c0,0,0,0,0,0l0.1-0.1c0.3-0.3,0.8-0.3,1.1,0c0,0,0,0,0,0l1.9,1.9l3.9-4
			C24,18.3,24.5,18.3,24.9,18.6C24.9,18.6,24.9,18.6,24.9,18.6z"/>
	</g>
</g>
</svg>
